<?xml version="1.0" standalone="no"?><!DOCTYPE svg PUBLIC "-//W3C//DTD SVG 1.1//EN" "http://www.w3.org/Graphics/SVG/1.1/DTD/svg11.dtd"><svg t="1681718295701" class="icon" viewBox="0 0 1024 1024" version="1.1" xmlns="http://www.w3.org/2000/svg" p-id="6746" xmlns:xlink="http://www.w3.org/1999/xlink" width="200" height="200"><path d="M222.4 289.5v444.9H74.1C33.2 734.3 0 700.9 0 660.9v-298c0-40.6 32.8-73.5 74.1-73.5h148.3z m237.3-178c32.8-24.6 59.3-10.7 59.3 29.8v741.1c0 41.1-26.3 54.6-59.3 29.9l-237.3-178V289.5l237.3-178z m417.7 754.3c195.4-195.4 195.4-512.3 0-707.8-21.7-21.7-56.9-21.7-78.6 0-21.7 21.7-21.7 56.9 0 78.6 152 152 152 398.5 0 550.5-21.7 21.7-21.7 56.9 0 78.6 21.7 21.8 56.9 21.8 78.6 0.1zM720.1 708.5c108.6-108.6 108.6-284.6 0-393.2-21.7-21.7-56.9-21.7-78.6 0-21.7 21.7-21.7 56.9 0 78.6 65.1 65.1 65.1 170.8 0 235.9-21.7 21.7-21.7 56.9 0 78.6 21.7 21.8 56.9 21.8 78.6 0.1z m0 0" p-id="6747" fill="#1296db"></path></svg>